{
  "source": "C:\\Users\\Peter\\Desktop\\stuff\\MIUN\\quantitative_research\\video_compression\\videos\\BVI-HD\\BVI-HD_CDVL_videos\\ORIG\\CalmingWater_1920x1080_60fps.mp4",
  "output": "C:\\Users\\Peter\\Desktop\\stuff\\MIUN\\quantitative_research\\video_compression\\compressed_videos\\BVI-HD\\av1\\2\\CalmingWater_1920x1080_60fps_av1.mkv",
  "codec": "av1",
  "ok": "Input #0, mov,mp4,m4a,3gp,3g2,mj2, from 'C:\\Users\\Peter\\Desktop\\stuff\\MIUN\\quantitative_research\\video_compression\\videos\\BVI-HD\\BVI-HD_CDVL_videos\\ORIG\\CalmingWater_1920x1080_60fps.mp4':\n  Metadata:\n    major_brand     : isom\n    minor_version   : 512\n    compatible_brands: isomiso2avc1mp41\n    encoder         : Lavf54.28.101\n  Duration: 00:00:05.00, start: 0.000000, bitrate: 623787 kb/s\n  Stream #0:0[0x1](und): Video: h264 (High 4:4:4 Predictive) (avc1 / 0x31637661), yuv420p(progressive), 1920x1080, 623782 kb/s, 60 fps, 60 tbr, 60 tbn (default)\n    Metadata:\n      handler_name    : VideoHandler\n      vendor_id       : [0][0][0][0]\n[out#0/matroska @ 00000168567c90c0] Codec AVOption b:a (set bitrate (in bits/s)) has not been used for any stream. The most likely reason is either wrong type (e.g. a video option with no video streams) or that it is a private option of some decoder which was not actually used for any stream.\nStream mapping:\n  Stream #0:0 -> #0:0 (h264 (native) -> av1 (libsvtav1))\nPress [q] to stop, [?] for help\nSvt[info]: -------------------------------------------\nSvt[info]: SVT [version]:\tSVT-AV1 Encoder Lib v3.1.0-19-g6ecfe8ec\nSvt[info]: SVT [build]  :\tGCC 15.2.0\t 64 bit\nSvt[info]: LIB Build date: Aug 17 2025 11:37:13\nSvt[info]: -------------------------------------------\nSvt[info]: Level of Parallelism: 5\nSvt[info]: Number of PPCS 93\nSvt[info]: [asm level on system : up to avx2]\nSvt[info]: [asm level selected : up to avx2]\nSvt[info]: -------------------------------------------\nSvt[info]: SVT [config]: main profile\ttier (auto)\tlevel (auto)\nSvt[info]: SVT [config]: width / height / fps numerator / fps denominator \t\t: 1920 / 1080 / 60 / 1\nSvt[info]: SVT [config]: bit-depth / color format \t\t\t\t\t: 8 / YUV420\nSvt[info]: SVT [config]: preset / tune / pred struct \t\t\t\t\t: 4 / PSNR / random access\nSvt[info]: SVT [config]: gop size / mini-gop size / key-frame type \t\t\t: 321 / 16 / key frame\nSvt[info]: SVT [config]: BRC mode / target bitrate (kbps)\t\t\t\t: VBR / 2000 \nSvt[info]: SVT [config]: AQ mode / Variance Boost \t\t\t\t\t: 2 / 0\nSvt[info]: SVT [config]: sharpness / luminance-based QP bias \t\t\t\t: 0 / 0\nSvt[info]: SVT [config]: QP scale compress strength \t\t\t\t\t: 0\nSvt[info]: -------------------------------------------\nOutput #0, matroska, to 'C:\\Users\\Peter\\Desktop\\stuff\\MIUN\\quantitative_research\\video_compression\\compressed_videos\\BVI-HD\\av1\\2\\CalmingWater_1920x1080_60fps_av1.mkv':\n  Metadata:\n    major_brand     : isom\n    minor_version   : 512\n    compatible_brands: isomiso2avc1mp41\n    encoder         : Lavf62.3.100\n  Stream #0:0(und): Video: av1 (AV01 / 0x31305641), yuv420p(tv, progressive), 1920x1080, q=2-31, 2000 kb/s, 60 fps, 1k tbn (default)\n    Metadata:\n      encoder         : Lavc62.11.100 libsvtav1\n      handler_name    : VideoHandler\n      vendor_id       : [0][0][0][0]\n    Side data:\n      cpb: bitrate max/min/avg: 0/0/2000000 buffer size: 2000000 vbv_delay: N/A\nframe=    0 fps=0.0 q=0.0 size=       0KiB time=N/A bitrate=N/A speed=N/A elapsed=0:00:01.02    \nframe=    0 fps=0.0 q=0.0 size=       0KiB time=N/A bitrate=N/A speed=N/A elapsed=0:00:01.60    \nframe=    0 fps=0.0 q=0.0 size=       0KiB time=N/A bitrate=N/A speed=N/A elapsed=0:00:02.21    \nframe=    0 fps=0.0 q=0.0 size=       0KiB time=N/A bitrate=N/A speed=N/A elapsed=0:00:02.73    \nframe=    0 fps=0.0 q=0.0 size=       0KiB time=N/A bitrate=N/A speed=N/A elapsed=0:00:03.28    \nframe=    1 fps=0.3 q=59.0 size=       1KiB time=00:00:00.00 bitrate=N/A speed=   0x elapsed=0:00:03.84    \nframe=    1 fps=0.2 q=59.0 size=       1KiB time=00:00:00.00 bitrate=N/A speed=   0x elapsed=0:00:04.38    \nframe=    8 fps=1.6 q=63.0 size=       1KiB time=00:00:00.11 bitrate=  48.8kbits/s speed=0.0238x elapsed=0:00:04.90    \nframe=   13 fps=2.4 q=62.0 size=       1KiB time=00:00:00.20 bitrate=  28.5kbits/s speed=0.0367x elapsed=0:00:05.44    \nframe=   17 fps=2.8 q=60.0 size=       1KiB time=00:00:00.26 bitrate=  21.4kbits/s speed=0.0447x elapsed=0:00:05.97    \nframe=   21 fps=3.2 q=60.0 size=       1KiB time=00:00:00.33 bitrate=  17.1kbits/s speed=0.0513x elapsed=0:00:06.49    \nframe=   23 fps=3.3 q=60.0 size=       1KiB time=00:00:00.36 bitrate=  15.5kbits/s speed=0.0523x elapsed=0:00:07.01    \nframe=   26 fps=3.4 q=60.0 size=       1KiB time=00:00:00.41 bitrate=  13.7kbits/s speed=0.0548x elapsed=0:00:07.59    \nframe=   31 fps=3.8 q=60.0 size=       1KiB time=00:00:00.50 bitrate=  11.4kbits/s speed=0.0614x elapsed=0:00:08.14    \nframe=   35 fps=4.0 q=59.0 size=       1KiB time=00:00:00.56 bitrate=  10.1kbits/s speed=0.0653x elapsed=0:00:08.67    \nframe=   38 fps=4.1 q=61.0 size=       1KiB time=00:00:00.61 bitrate=   9.2kbits/s speed=0.0671x elapsed=0:00:09.19    \nframe=   40 fps=4.1 q=61.0 size=       1KiB time=00:00:00.65 bitrate=   8.8kbits/s speed=0.0668x elapsed=0:00:09.73    \nframe=   44 fps=4.3 q=59.0 size=       1KiB time=00:00:00.70 bitrate=   8.1kbits/s speed=0.0682x elapsed=0:00:10.27    \nframe=   48 fps=4.4 q=60.0 size=       1KiB time=00:00:00.78 bitrate=   7.3kbits/s speed=0.0725x elapsed=0:00:10.81    \nframe=   52 fps=4.6 q=61.0 size=       1KiB time=00:00:00.85 bitrate=   6.7kbits/s speed=0.075x elapsed=0:00:11.32    \nframe=   55 fps=4.6 q=60.0 size=       1KiB time=00:00:00.90 bitrate=   6.3kbits/s speed=0.0758x elapsed=0:00:11.87    \nframe=   59 fps=4.7 q=62.0 size=       1KiB time=00:00:00.96 bitrate=   5.9kbits/s speed=0.0777x elapsed=0:00:12.43    \nframe=   67 fps=5.2 q=63.0 size=       1KiB time=00:00:01.10 bitrate=   5.2kbits/s speed=0.085x elapsed=0:00:12.94    \nframe=   71 fps=5.3 q=63.0 size=       1KiB time=00:00:01.16 bitrate=   4.9kbits/s speed=0.0866x elapsed=0:00:13.46    \nframe=   75 fps=5.3 q=62.0 size=       1KiB time=00:00:01.23 bitrate=   4.6kbits/s speed=0.088x elapsed=0:00:14.01    \nframe=   82 fps=5.6 q=63.0 size=       1KiB time=00:00:01.35 bitrate=   4.2kbits/s speed=0.0926x elapsed=0:00:14.57    \nframe=   87 fps=5.8 q=63.0 size=       1KiB time=00:00:01.43 bitrate=   4.0kbits/s speed=0.0948x elapsed=0:00:15.11    \nframe=   91 fps=5.8 q=61.0 size=       1KiB time=00:00:01.50 bitrate=   3.8kbits/s speed=0.0957x elapsed=0:00:15.66    \nframe=   96 fps=5.9 q=60.0 size=       1KiB time=00:00:01.58 bitrate=   3.6kbits/s speed=0.0978x elapsed=0:00:16.19    \nframe=  102 fps=6.1 q=63.0 size=       1KiB time=00:00:01.66 bitrate=   3.4kbits/s speed=0.0997x elapsed=0:00:16.71    \nframe=  103 fps=6.0 q=62.0 size=       1KiB time=00:00:01.70 bitrate=   3.4kbits/s speed=0.0985x elapsed=0:00:17.25    \nframe=  107 fps=6.0 q=61.0 size=       1KiB time=00:00:01.76 bitrate=   3.2kbits/s speed=0.0991x elapsed=0:00:17.81    \nframe=  114 fps=6.2 q=62.0 size=       1KiB time=00:00:01.88 bitrate=   3.0kbits/s speed=0.102x elapsed=0:00:18.38    \nframe=  118 fps=6.2 q=62.0 size=       1KiB time=00:00:01.95 bitrate=   2.9kbits/s speed=0.103x elapsed=0:00:18.92    \nframe=  122 fps=6.3 q=62.0 size=       1KiB time=00:00:02.00 bitrate=   2.8kbits/s speed=0.103x elapsed=0:00:19.45    \nframe=  126 fps=6.3 q=62.0 size=       1KiB time=00:00:02.08 bitrate=   2.7kbits/s speed=0.104x elapsed=0:00:19.99    \nframe=  131 fps=6.4 q=62.0 size=       1KiB time=00:00:02.16 bitrate=   2.6kbits/s speed=0.105x elapsed=0:00:20.54    \nframe=  135 fps=6.4 q=62.0 size=       1KiB time=00:00:02.23 bitrate=   2.6kbits/s speed=0.106x elapsed=0:00:21.05    \nframe=  139 fps=6.4 q=61.0 size=       1KiB time=00:00:02.28 bitrate=   2.5kbits/s speed=0.106x elapsed=0:00:21.56    \nframe=  143 fps=6.5 q=61.0 size=       1KiB time=00:00:02.36 bitrate=   2.4kbits/s speed=0.107x elapsed=0:00:22.13    \nframe=  148 fps=6.5 q=62.0 size=       1KiB time=00:00:02.45 bitrate=   2.3kbits/s speed=0.108x elapsed=0:00:22.65    \nframe=  151 fps=6.5 q=62.0 size=       1KiB time=00:00:02.50 bitrate=   2.3kbits/s speed=0.108x elapsed=0:00:23.19    \nframe=  154 fps=6.5 q=61.0 size=       1KiB time=00:00:02.55 bitrate=   2.2kbits/s speed=0.107x elapsed=0:00:23.77    \nframe=  159 fps=6.5 q=60.0 size=       1KiB time=00:00:02.63 bitrate=   2.2kbits/s speed=0.108x elapsed=0:00:24.29    \nframe=  163 fps=6.6 q=60.0 size=       1KiB time=00:00:02.70 bitrate=   2.1kbits/s speed=0.109x elapsed=0:00:24.81    \nframe=  166 fps=6.6 q=61.0 size=       1KiB time=00:00:02.75 bitrate=   2.1kbits/s speed=0.109x elapsed=0:00:25.32    \nframe=  169 fps=6.5 q=59.0 size=       1KiB time=00:00:02.78 bitrate=   2.0kbits/s speed=0.108x elapsed=0:00:25.83    \nframe=  173 fps=6.6 q=58.0 size=       1KiB time=00:00:02.86 bitrate=   2.0kbits/s speed=0.109x elapsed=0:00:26.40    \nframe=  179 fps=6.6 q=61.0 size=       1KiB time=00:00:02.96 bitrate=   1.9kbits/s speed=0.11x elapsed=0:00:26.94    \nframe=  183 fps=6.7 q=61.0 size=       1KiB time=00:00:03.03 bitrate=   1.9kbits/s speed=0.111x elapsed=0:00:27.45    \nframe=  187 fps=6.7 q=61.0 size=       1KiB time=00:00:03.10 bitrate=   1.8kbits/s speed=0.111x elapsed=0:00:27.98    \nframe=  192 fps=6.7 q=62.0 size=       1KiB time=00:00:03.18 bitrate=   1.8kbits/s speed=0.112x elapsed=0:00:28.54    \nframe=  198 fps=6.8 q=62.0 size=       1KiB time=00:00:03.28 bitrate=   1.7kbits/s speed=0.113x elapsed=0:00:29.07    \nframe=  202 fps=6.8 q=62.0 size=       1KiB time=00:00:03.35 bitrate=   1.7kbits/s speed=0.113x elapsed=0:00:29.58    \nframe=  205 fps=6.8 q=59.0 size=       1KiB time=00:00:03.40 bitrate=   1.7kbits/s speed=0.113x elapsed=0:00:30.12    \nframe=  213 fps=6.9 q=61.0 size=       1KiB time=00:00:03.53 bitrate=   1.6kbits/s speed=0.115x elapsed=0:00:30.65    \nframe=  217 fps=7.0 q=59.0 size=       1KiB time=00:00:03.60 bitrate=   1.6kbits/s speed=0.115x elapsed=0:00:31.17    \nframe=  221 fps=7.0 q=58.0 size=       1KiB time=00:00:03.66 bitrate=   1.6kbits/s speed=0.116x elapsed=0:00:31.73    \nframe=  229 fps=7.1 q=60.0 size=       1KiB time=00:00:03.76 bitrate=   1.5kbits/s speed=0.117x elapsed=0:00:32.25    \nframe=  233 fps=7.1 q=58.0 size=       1KiB time=00:00:03.86 bitrate=   1.5kbits/s speed=0.118x elapsed=0:00:32.77    \nframe=  233 fps=7.0 q=58.0 size=       1KiB time=00:00:03.86 bitrate=   1.5kbits/s speed=0.116x elapsed=0:00:33.33    \nframe=  237 fps=7.0 q=57.0 size=       1KiB time=00:00:03.93 bitrate=   1.4kbits/s speed=0.116x elapsed=0:00:33.87    \nframe=  241 fps=7.0 q=54.0 size=       1KiB time=00:00:04.00 bitrate=   1.4kbits/s speed=0.116x elapsed=0:00:34.47    \nframe=  245 fps=7.0 q=57.0 size=       1KiB time=00:00:04.06 bitrate=   1.4kbits/s speed=0.116x elapsed=0:00:35.02    \nframe=  249 fps=7.0 q=57.0 size=       1KiB time=00:00:04.13 bitrate=   1.4kbits/s speed=0.116x elapsed=0:00:35.58    \nframe=  253 fps=7.0 q=57.0 size=       1KiB time=00:00:04.20 bitrate=   1.4kbits/s speed=0.116x elapsed=0:00:36.18    \nframe=  257 fps=7.0 q=53.0 size=       1KiB time=00:00:04.26 bitrate=   1.3kbits/s speed=0.116x elapsed=0:00:36.78    \nframe=  261 fps=7.0 q=60.0 size=       1KiB time=00:00:04.33 bitrate=   1.3kbits/s speed=0.116x elapsed=0:00:37.34    \nframe=  265 fps=7.0 q=57.0 size=       1KiB time=00:00:04.40 bitrate=   1.3kbits/s speed=0.116x elapsed=0:00:37.93    \nframe=  265 fps=6.9 q=57.0 size=       1KiB time=00:00:04.40 bitrate=   1.3kbits/s speed=0.114x elapsed=0:00:38.49    \nframe=  269 fps=6.9 q=59.0 size=       1KiB time=00:00:04.46 bitrate=   1.3kbits/s speed=0.114x elapsed=0:00:39.07    \nframe=  275 fps=6.9 q=61.0 size=       1KiB time=00:00:04.56 bitrate=   1.2kbits/s speed=0.115x elapsed=0:00:39.61    \nframe=  279 fps=6.9 q=61.0 size=       1KiB time=00:00:04.63 bitrate=   1.2kbits/s speed=0.115x elapsed=0:00:40.14    \nframe=  281 fps=6.9 q=59.0 size=       1KiB time=00:00:04.66 bitrate=   1.2kbits/s speed=0.115x elapsed=0:00:40.67    \nframe=  287 fps=7.0 q=61.0 size=       1KiB time=00:00:04.76 bitrate=   1.2kbits/s speed=0.116x elapsed=0:00:41.22    \n[out#0/matroska @ 00000168567c90c0] video:1262KiB audio:0KiB subtitle:0KiB other streams:0KiB global headers:0KiB muxing overhead: 0.164841%\nframe=  300 fps=7.2 q=61.0 Lsize=    1265KiB time=00:00:04.98 bitrate=2078.8kbits/s speed=0.12x elapsed=0:00:41.62    \n",
  "seconds": 42.1864230632782,
  "probe_out": {}
}